<svg id="Layer_1" data-name="Layer 1" xmlns="http://www.w3.org/2000/svg" viewBox="0 0 1315.95 658.81"><defs><style>.cls-1,.cls-11{fill:none;stroke-miterlimit:10;}.cls-1{stroke:#e3e3f1;stroke-width:4px;}.cls-2{fill:#5c62ab;}.cls-3{fill:#90cdf0;}.cls-4{fill:#8b8fc4;}.cls-5{fill:#62a6ce;}.cls-6{fill:#b1dcf5;}.cls-7{fill:#91cef0;}.cls-8{fill:#5c62ac;}.cls-9{fill:#656bb1;}.cls-10{fill:#e3e3f1;}.cls-11{stroke:#656bb1;}.cls-12{fill:#d0d2d3;}</style></defs><title>CC-Hero-Homepage</title><path class="cls-1" d="M903.15,453.92C894.89,440,886.83,426,879.09,411.8c-.87-1.59-2.38-1.39-2.71.39-3.06,16.18-7.08,32.94-7.93,49.42-.05,1.64,1.24,3.54,2.33,3.39,10.73-.6,21.3-4.48,31.71-6.9C903.72,457.81,904.08,455.49,903.15,453.92Z"/><path class="cls-2" d="M556.11,425q-15.54-26.33-31-52.72c-1.12-1.9-3.8-1.13-4.81,1.39-9.23,23.06-18.16,46.22-27,69.42-.94,2.46.5,4.71,2.6,4.07q28.92-8.7,58-16.57C556,430,557.25,426.94,556.11,425Z"/><path class="cls-3" d="M752.48,389.84c-61-48.43-129.9-84.59-201.39-114.86-8.76-3.76-11.39-14.49-7.56-22.45,3.45-7.16,10.85-11.91,19-8.17C632.17,274.1,700,309.22,758.3,358c6.25,6,8.18,15.62,6.92,23.87C763.91,390.4,758.65,394.83,752.48,389.84ZM562.33,247.17c-7.42-3.13-11.73,0-15.77,6.59A12.58,12.58,0,0,0,552.73,272c71.16,30.2,139.85,66.23,200.33,114.76,5,4.07,9.28.66,10.43-6.35s-1.08-15.57-5.69-19.53C699.6,312,631.88,276.9,562.33,247.17Z"/><path class="cls-4" d="M765.84,437.27a5.81,5.81,0,0,0-1-.25c-3.22,2.74-4.85,4.15-8.17,7-.18.49-.34,1-.5,1.53C760.14,442.17,762.06,440.5,765.84,437.27Z"/><path class="cls-4" d="M768.78,439.1l-.67-.5c-5,4.26-7.52,6.5-12.75,11.1-.06.42-.12.83-.16,1.25C760.77,446,763.49,443.64,768.78,439.1Z"/><path class="cls-4" d="M771.49,441.11l-.67-.49c-6.13,5.28-9.29,8.08-15.81,13.88,0,.36,0,.73,0,1.09C761.82,449.54,765.11,446.61,771.49,441.11Z"/><path class="cls-4" d="M774.2,443.12l-.67-.49c-6.15,5.32-12.24,10.73-18.29,16.17,0,.34.08.67.13,1C761.6,454.19,767.86,448.61,774.2,443.12Z"/><path class="cls-4" d="M776.92,445.11l-.67-.49q-10.25,9-20.35,18.12c.07.31.15.62.22.92Q766.47,454.33,776.92,445.11Z"/><path class="cls-4" d="M779.64,447.1l-.67-.49c-7.42,6.49-14.73,13.1-22,19.74.1.28.2.56.31.84C764.67,460.43,772.09,453.7,779.64,447.1Z"/><path class="cls-4" d="M782.36,449.07l-.67-.48c-7.86,6.9-15.59,13.94-23.3,21,.14.25.27.51.41.75C766.6,463.19,774.41,456.06,782.36,449.07Z"/><path class="cls-4" d="M785.08,451l-.67-.49c-8.14,7.19-16.14,14.52-24.12,21.88a8.27,8.27,0,0,0,.56.61C768.88,465.65,776.91,458.26,785.08,451Z"/><path class="cls-4" d="M787.81,453l-.67-.48c-8.21,7.27-16.26,14.72-24.31,22.16l.7.48C771.57,467.71,779.61,460.26,787.81,453Z"/><path class="cls-4" d="M790.55,454.93l-.68-.48c-8.17,7.27-16.19,14.72-24.2,22.17l.7.48C774.38,469.65,782.38,462.2,790.55,454.93Z"/><path class="cls-4" d="M793.29,456.86l-.68-.47c-8.14,7.27-16.12,14.71-24.1,22.17l.71.47C777.18,471.58,785.15,464.13,793.29,456.86Z"/><path class="cls-4" d="M796,458.78l-.68-.47c-8.11,7.27-16.05,14.72-24,22.17l.7.47C780,473.48,787.92,466.05,796,458.78Z"/><path class="cls-4" d="M798.77,460.69l-.67-.47c-8.08,7.26-16,14.7-23.89,22.17l.7.47C782.79,475.39,790.7,468,798.77,460.69Z"/><path class="cls-4" d="M801.53,462.59l-.68-.47c-8.05,7.26-15.94,14.69-23.79,22.17l.7.46C785.6,477.28,793.48,469.85,801.53,462.59Z"/><path class="cls-4" d="M804.28,464.48l-.68-.47c-8,7.26-15.88,14.69-23.69,22.16l.7.47C788.41,479.16,796.26,471.73,804.28,464.48Z"/><path class="cls-4" d="M807,466.36l-.68-.47c-8,7.25-15.82,14.68-23.6,22.16l.7.46C791.23,481,799.05,473.6,807,466.36Z"/><path class="cls-4" d="M809.8,468.22l-.68-.46c-8,7.24-15.76,14.67-23.5,22.15l.7.45C794.05,482.88,801.84,475.46,809.8,468.22Z"/><path class="cls-4" d="M812.57,470.08l-.68-.46c-7.94,7.23-15.71,14.66-23.42,22.13l.7.46C796.88,484.73,804.63,477.31,812.57,470.08Z"/><path class="cls-4" d="M815.34,471.92l-.68-.45c-7.92,7.22-15.65,14.64-23.33,22.12l.7.45C799.7,486.56,807.43,479.14,815.34,471.92Z"/><path class="cls-4" d="M818.12,473.75l-.68-.45c-7.9,7.22-15.6,14.64-23.25,22.11l.7.45C802.53,488.38,810.24,481,818.12,473.75Z"/><path class="cls-4" d="M820.9,475.58l-.68-.45c-7.87,7.21-15.55,14.62-23.17,22.09l.71.45C805.37,490.19,813,482.78,820.9,475.58Z"/><path class="cls-4" d="M823.69,477.39l-.69-.45c-7.84,7.2-15.5,14.61-23.08,22.08l.7.44C808.2,492,815.85,484.59,823.69,477.39Z"/><path class="cls-4" d="M826.48,479.19l-.69-.44c-7.82,7.19-15.45,14.59-23,22.06l.7.43C811,493.78,818.67,486.38,826.48,479.19Z"/><path class="cls-4" d="M829.28,481l-.69-.44c-7.8,7.18-15.41,14.57-22.93,22l.7.43C813.89,495.55,821.49,488.16,829.28,481Z"/><path class="cls-4" d="M832.08,482.76l-.69-.44c-7.78,7.17-15.36,14.56-22.86,22l.71.43C816.73,497.31,824.31,489.93,832.08,482.76Z"/><path class="cls-4" d="M834.89,484.53l-.69-.44c-7.76,7.16-15.32,14.54-22.8,22l.71.43C819.58,499.06,827.14,491.69,834.89,484.53Z"/><path class="cls-4" d="M837.71,486.28l-.7-.43c-7.74,7.15-15.28,14.52-22.73,22l.71.43C822.44,500.8,830,493.43,837.71,486.28Z"/><path class="cls-4" d="M840.52,488l-.69-.43c-7.72,7.14-15.24,14.5-22.66,21.95l.71.42C825.3,502.52,832.81,495.17,840.52,488Z"/><path class="cls-4" d="M843.35,489.76l-.7-.42c-7.7,7.13-15.2,14.48-22.6,21.92l.71.42C828.16,504.24,835.65,496.89,843.35,489.76Z"/><path class="cls-4" d="M846.18,491.49l-.7-.43c-7.69,7.12-15.16,14.46-22.54,21.9l.71.41C831,505.94,838.49,498.6,846.18,491.49Z"/><path class="cls-4" d="M849,493.2l-.69-.42c-7.68,7.1-15.13,14.44-22.49,21.86l.71.42C833.89,507.63,841.35,500.3,849,493.2Z"/><path class="cls-4" d="M851.86,494.9l-.7-.42c-7.66,7.09-15.1,14.42-22.44,21.84l.72.41C836.77,509.31,844.2,502,851.86,494.9Z"/><path class="cls-4" d="M854.7,496.59l-.7-.41c-7.64,7.07-15.06,14.39-22.38,21.8l.72.41C839.65,511,847.06,503.67,854.7,496.59Z"/><path class="cls-4" d="M857.56,498.27l-.71-.41c-7.63,7.06-15,14.36-22.33,21.77l.72.41C842.53,512.63,849.93,505.33,857.56,498.27Z"/><path class="cls-4" d="M860.42,499.94l-.71-.41c-7.62,7.05-15,14.34-22.28,21.74l.72.4C845.42,514.27,852.8,507,860.42,499.94Z"/><path class="cls-4" d="M863.28,501.6l-.71-.41c-7.6,7-15,14.31-22.23,21.7l.71.4C848.31,515.9,855.68,508.63,863.28,501.6Z"/><path class="cls-4" d="M866.15,503.24l-.71-.4c-7.59,7-15,14.29-22.19,21.67l.72.39C851.21,517.52,858.56,510.26,866.15,503.24Z"/><path class="cls-4" d="M869,504.88l-.71-.4c-7.58,7-14.93,14.26-22.15,21.63l.72.39C854.11,519.13,861.45,511.88,869,504.88Z"/><path class="cls-4" d="M871.91,506.5l-.71-.4c-7.57,7-14.9,14.23-22.11,21.6l.72.39C857,520.73,864.34,513.49,871.91,506.5Z"/><path class="cls-4" d="M874.81,508.11l-.72-.39c-7.56,7-14.88,14.2-22.08,21.55l.73.39C859.93,522.31,867.24,515.08,874.81,508.11Z"/><path class="cls-4" d="M877.7,509.71l-.71-.39c-7.56,7-14.87,14.18-22,21.52l.73.38C862.84,523.88,870.15,516.67,877.7,509.71Z"/><path class="cls-4" d="M880.61,511.3l-.72-.39c-7.55,6.94-14.85,14.15-22,21.48l.72.38C865.76,525.44,873.06,518.24,880.61,511.3Z"/><path class="cls-4" d="M883.52,512.88l-.72-.39c-7.54,6.93-14.83,14.12-22,21.44l.72.38C868.69,527,876,519.8,883.52,512.88Z"/><path class="cls-4" d="M886.43,514.45l-.72-.39c-7.53,6.91-14.81,14.09-22,21.4l.72.37C871.62,528.53,878.9,521.35,886.43,514.45Z"/><path class="cls-4" d="M889.36,516l-.72-.39c-7.53,6.89-14.8,14.06-21.93,21.35l.72.37C874.56,530.05,881.83,522.89,889.36,516Z"/><path class="cls-4" d="M892.29,517.55l-.72-.38c-7.52,6.87-14.79,14-21.91,21.31l.73.36C877.51,531.56,884.77,524.42,892.29,517.55Z"/><path class="cls-4" d="M895.23,519.08l-.73-.37c-7.51,6.85-14.77,14-21.88,21.26l.73.36C880.45,533.06,887.71,525.93,895.23,519.08Z"/><path class="cls-4" d="M898.17,520.61l-.72-.38c-7.52,6.84-14.77,14-21.87,21.22l.73.36C883.41,534.55,890.66,527.44,898.17,520.61Z"/><path class="cls-4" d="M901.12,522.12l-.72-.37c-7.51,6.81-14.76,13.92-21.85,21.16l.73.36C886.37,536,893.62,528.93,901.12,522.12Z"/><path class="cls-4" d="M904.08,523.62c-.29-.15-.43-.23-.73-.37-7.5,6.8-14.74,13.88-21.83,21.12l.73.35C889.34,537.49,896.58,530.41,904.08,523.62Z"/><path class="cls-4" d="M907.05,525.1l-.73-.36c-7.5,6.78-14.74,13.85-21.82,21.07l.73.35C892.31,539,899.55,531.88,907.05,525.1Z"/><path class="cls-4" d="M910,526.58l-.74-.36c-7.5,6.76-14.74,13.81-21.81,21l.74.35C895.29,540.39,902.52,533.34,910,526.58Z"/><path class="cls-4" d="M913,528l-.74-.36c-7.5,6.75-14.73,13.79-21.8,21l.74.35C898.27,541.82,905.51,534.78,913,528Z"/><path class="cls-4" d="M916,529.5l-.74-.36c-7.5,6.73-14.73,13.75-21.8,20.93l.74.34C901.27,543.24,908.5,536.22,916,529.5Z"/><path class="cls-4" d="M919,530.94l-.73-.35c-7.51,6.7-14.74,13.71-21.8,20.87l.74.34C904.26,544.64,911.49,537.64,919,530.94Z"/><path class="cls-4" d="M922,532.37l-.74-.35c-7.5,6.69-14.73,13.67-21.79,20.83l.74.33C907.27,546,914.5,539.05,922,532.37Z"/><path class="cls-4" d="M924.93,533.86c-.22-.14-.46-.27-.69-.39-7.49,6.65-14.71,13.62-21.76,20.75l.74.33C910.25,547.44,917.46,540.5,924.93,533.86Z"/><path class="cls-4" d="M927.35,535.8c-.18-.18-.36-.36-.54-.52-7.33,6.51-14.41,13.32-21.31,20.29l.74.34C913.08,549,920.09,542.26,927.35,535.8Z"/><path class="cls-4" d="M929.35,538.11c-.15-.21-.3-.41-.46-.6-6.94,6.35-13.68,12.79-20.37,19.41l.75.33C915.86,550.73,922.51,544.37,929.35,538.11Z"/><path class="cls-4" d="M931,540.71l-.39-.66c-6.56,5.86-12.82,12-19.08,18.21l.75.32C918.44,552.52,924.58,546.47,931,540.71Z"/><path class="cls-4" d="M932.37,543.6c-.1-.24-.21-.48-.31-.73-6,5.39-11.81,11-17.47,16.71l.75.32C920.86,554.33,926.55,548.87,932.37,543.6Z"/><path class="cls-4" d="M933.37,546.82c-.06-.28-.14-.55-.21-.82-6.17,5.63-9.27,8.63-15.53,14.89l.75.32C924.43,555.18,927.42,552.27,933.37,546.82Z"/><path class="cls-4" d="M934,550.43c0-.32-.05-.63-.09-.95-5.24,4.86-7.88,7.41-13.19,12.71l.75.32C926.48,557.48,929,555.05,934,550.43Z"/><path class="cls-4" d="M933.88,554.68c0-.37.09-.75.11-1.14-4.07,3.83-6.11,5.82-10.22,9.9a7.1,7.1,0,0,0,.85.22C928.34,560,930.19,558.16,933.88,554.68Z"/><path class="cls-4" d="M932.7,559c-1.85,1.78-2.78,2.68-4.64,4.51A8.05,8.05,0,0,0,932.7,559Z"/><path class="cls-3" d="M798.45,604.48q-29-13.63-57.11-28.93c-27.3-14.95-54.57-29.79-82.4-43.75q-39.63-19.59-80.11-37.28c-9.39-3.71-18.78,2.72-22.18,11.48-3.48,9-.16,19.47,9,23.43q42,17.6,83,37.1c29.39,14.09,58.24,29.13,87.28,43.91,19.51,9.78,39.21,19,59.27,27.54,6.3,2.65,12-2.41,12.78-11.54C808.62,618.42,805.9,608.75,798.45,604.48Z"/><path class="cls-5" d="M1037.29,641.42c-8.75-1.71-13.09-2.61-21.69-4.5q-23.6-5.17-46.88-11.63c-12.49-3.44-24.87-7.22-37.18-11.24-4-1.3-7.28,2.24-7.42,7.91s3,11.2,7,12.39c12.4,3.65,24.89,7.07,37.45,10.15q23.4,5.81,47.1,10.29c8.64,1.65,13,2.44,21.76,3.92,4.28.72,7.73-2.51,7.69-7.23S1041.55,642.26,1037.29,641.42Z"/><path class="cls-5" d="M887.59,453.35A1104.39,1104.39,0,0,1,790.34,384a2.51,2.51,0,0,1-.61-2.19c.15-.82.66-1.16,1.15-.77a1135.17,1135.17,0,0,0,97.19,69.31,2.21,2.21,0,0,1,.74,2.1C888.67,453.28,888.13,453.69,887.59,453.35Z"/><path class="cls-6" d="M1142.37,604.42a12,12,0,0,0-1.22.06c-2.08,1.4-3.12,2.1-5.19,3.54a5.18,5.18,0,0,0-.3,1C1138.34,607.14,1139.68,606.22,1142.37,604.42Z"/><path class="cls-6" d="M1146.23,604.94l-.92-.15c-3.87,2.58-5.79,3.9-9.63,6.61,0,.22.1.45.17.67C1140,609.14,1142.06,607.71,1146.23,604.94Z"/><path class="cls-6" d="M1150,605.53l-.92-.15c-5,3.31-7.45,5-12.38,8.53.11.18.23.36.35.54C1142.16,610.77,1144.75,609,1150,605.53Z"/><path class="cls-6" d="M1153.71,606.11l-.92-.14c-5.83,3.85-8.73,5.85-14.47,10,.15.15.32.29.49.44C1144.73,612.13,1147.71,610.07,1153.71,606.11Z"/><path class="cls-6" d="M1157.47,606.68l-.93-.14c-6.45,4.24-9.64,6.46-16,11l.64.32C1147.66,613.24,1150.91,611,1157.47,606.68Z"/><path class="cls-6" d="M1160.31,607.1c-6.78,4.44-10.14,6.76-16.81,11.56l.63.12.25,0c6.69-4.81,10.07-7.13,16.86-11.59Z"/><path class="cls-6" d="M1165,607.78l-.93-.13c-6.82,4.45-10.2,6.77-16.91,11.57l.92.13C1154.82,614.55,1158.21,612.23,1165,607.78Z"/><path class="cls-6" d="M1168.83,608.31l-.93-.13c-6.85,4.45-10.24,6.78-17,11.57l.92.13C1158.59,615.08,1162,612.76,1168.83,608.31Z"/><path class="cls-6" d="M1172.65,608.83l-.94-.13c-6.87,4.46-10.28,6.78-17,11.57l.93.12C1162.37,615.6,1165.77,613.28,1172.65,608.83Z"/><path class="cls-6" d="M1176.48,609.34l-.94-.13c-6.9,4.46-10.32,6.78-17.1,11.56l.93.13C1166.16,616.11,1169.58,613.79,1176.48,609.34Z"/><path class="cls-6" d="M1180.33,609.83l-.95-.12c-6.93,4.46-10.36,6.77-17.17,11.56l.94.12C1170,616.61,1173.4,614.29,1180.33,609.83Z"/><path class="cls-6" d="M1184.18,610.31l-1-.12c-7,4.46-10.39,6.78-17.23,11.56l.94.12C1173.78,617.09,1177.23,614.77,1184.18,610.31Z"/><path class="cls-6" d="M1188.06,610.78l-1-.11c-7,4.46-10.43,6.78-17.29,11.55l.94.12C1177.61,617.56,1181.07,615.24,1188.06,610.78Z"/><path class="cls-6" d="M1191.94,611.24l-1-.12c-7,4.47-10.48,6.79-17.36,11.56l.94.12C1181.46,618,1184.93,615.7,1191.94,611.24Z"/><path class="cls-6" d="M1195.85,611.68l-1-.11c-7,4.47-10.51,6.79-17.42,11.56l.94.11C1185.32,618.47,1188.81,616.15,1195.85,611.68Z"/><path class="cls-6" d="M1199.76,612.11l-1-.1c-7.06,4.47-10.56,6.79-17.5,11.56l1,.11C1189.2,618.91,1192.7,616.59,1199.76,612.11Z"/><path class="cls-6" d="M1203.69,612.53l-1-.1c-7.08,4.48-10.59,6.8-17.55,11.57l.95.1C1193.09,619.33,1196.6,617,1203.69,612.53Z"/><path class="cls-6" d="M1207.64,612.94l-1-.1c-7.12,4.48-10.64,6.8-17.63,11.57l1,.1C1197,619.75,1200.52,617.43,1207.64,612.94Z"/><path class="cls-6" d="M1211.6,613.33l-1-.09c-7.14,4.49-10.67,6.81-17.69,11.58l1,.1C1200.91,620.15,1204.45,617.83,1211.6,613.33Z"/><path class="cls-6" d="M1215.58,613.71l-1-.09c-7.17,4.5-10.72,6.82-17.77,11.59l1,.1C1204.85,620.54,1208.4,618.21,1215.58,613.71Z"/><path class="cls-6" d="M1219.57,614.08l-1-.09c-7.19,4.51-10.76,6.83-17.83,11.6l1,.1C1208.8,620.91,1212.37,618.59,1219.57,614.08Z"/><path class="cls-6" d="M1223.57,614.44l-1-.09c-7.23,4.52-10.81,6.84-17.9,11.61l1,.09C1212.76,621.28,1216.34,619,1223.57,614.44Z"/><path class="cls-6" d="M1227.6,614.78l-1-.08c-7.25,4.52-10.84,6.85-18,11.62l1,.09C1216.74,621.64,1220.34,619.31,1227.6,614.78Z"/><path class="cls-6" d="M1231.63,615.11l-1-.08c-7.28,4.53-10.89,6.87-18,11.64l1,.09C1220.74,622,1224.35,619.65,1231.63,615.11Z"/><path class="cls-6" d="M1235.68,615.43l-1-.07c-7.31,4.54-10.93,6.87-18.11,11.65l1,.08C1224.75,622.31,1228.37,620,1235.68,615.43Z"/><path class="cls-6" d="M1239.75,615.74l-1-.07c-7.34,4.55-11,6.88-18.18,11.66l1,.08C1228.77,622.63,1232.41,620.29,1239.75,615.74Z"/><path class="cls-6" d="M1243.84,616l-1-.07c-7.37,4.56-11,6.9-18.25,11.69l1,.07C1232.81,622.94,1236.46,620.6,1243.84,616Z"/><path class="cls-6" d="M1247.93,616.31l-1-.06c-7.39,4.57-11.05,6.91-18.31,11.7l1,.08C1236.87,623.23,1240.53,620.89,1247.93,616.31Z"/><path class="cls-6" d="M1252.05,616.58l-1-.06c-7.42,4.58-11.09,6.93-18.38,11.72l1,.07C1240.94,623.52,1244.62,621.17,1252.05,616.58Z"/><path class="cls-6" d="M1256.18,616.84l-1-.06c-7.45,4.59-11.14,7-18.46,11.75l1,.06C1245,623.79,1248.72,621.44,1256.18,616.84Z"/><path class="cls-6" d="M1260.33,617.08l-1-.06c-7.48,4.61-11.18,7-18.53,11.78l1,.06C1249.13,624.05,1252.84,621.69,1260.33,617.08Z"/><path class="cls-6" d="M1263.46,617.26c-7.51,4.62-11.23,7-18.6,11.79l1,.06h0c7.38-4.82,11.1-7.18,18.62-11.81Z"/><path class="cls-6" d="M1268.67,617.53l-1,0c-7.54,4.63-11.28,7-18.68,11.82l1,.06C1257.38,624.54,1261.12,622.17,1268.67,617.53Z"/><path class="cls-6" d="M1272.84,617.75l-.41,0-.6,0c-7.57,4.66-11.32,7-18.75,11.86l1,.06C1261.53,624.77,1265.28,622.4,1272.84,617.75Z"/><path class="cls-6" d="M1276.28,618.42c-.25-.09-.5-.16-.76-.23-7.38,4.55-11,6.87-18.3,11.57l1,.06C1265.39,625.18,1269,622.9,1276.28,618.42Z"/><path class="cls-6" d="M1278.87,619.61l-.58-.34c-6.82,4.22-10.21,6.36-16.92,10.71l1,0C1268.93,625.8,1272.22,623.71,1278.87,619.61Z"/><path class="cls-6" d="M1280.8,621.2c-.13-.14-.26-.29-.41-.43-6,3.72-9,5.6-14.86,9.41l1,.05C1272.22,626.58,1275.07,624.77,1280.8,621.2Z"/><path class="cls-6" d="M1282,623.27a5.37,5.37,0,0,0-.21-.56c-4.86,3-7.27,4.57-12.07,7.66l1,0C1275.23,627.53,1277.48,626.1,1282,623.27Z"/><path class="cls-6" d="M1281.86,626.19a4.24,4.24,0,0,0,.25-.86c-3.25,2-4.87,3.08-8.09,5.16.44,0,.88-.07,1.3-.13C1277.93,628.68,1279.24,627.85,1281.86,626.19Z"/><path class="cls-3" d="M1040.52,492.71c-8.34-3.5-12.46-5.3-20.6-9-14.86-6.91-29.58-14.12-44-21.93-42.79-23.47-83.26-50.29-122.56-79.19-3.34-2.48-6.87-.27-7.89,5s.87,11.55,4.23,13.95c39.61,28.08,80.58,53.62,123.84,75.69,14.63,7.37,29.53,14.12,44.58,20.58,8.25,3.48,12.42,5.17,20.87,8.42,4.11,1.59,7.79-.44,8.19-4.09S1044.59,494.41,1040.52,492.71Z"/><path class="cls-5" d="M1300.5,589.84q-21.2-.66-42.34-2-23.12-1.7-46.12-4.26c-7.76-.91-13.87,2-13.76,7.07s6.4,10.14,14.15,11q23,2.31,46,3.87,21.16,1.24,42.33,1.91c8.4.23,15.23-3.82,15.14-8.68S1308.9,590.07,1300.5,589.84Z"/><path class="cls-5" d="M721.49,131.17Q702.91,120.28,684,110.05q-22.85-12.1-46.07-23.39C630.69,83,621.36,85.9,620,94.37c-1.41,9,4.18,18.27,12.3,22.47q23.24,11.32,46,23.43,18.95,10.29,37.51,21.22c7,4.18,13.81.52,15.23-7.8S728.88,135.93,721.49,131.17Z"/><path class="cls-7" d="M658.74,503.39C590,468.71,519.27,439.08,446,415.53c-.81-.26-1.15-1.37-.75-2.49s1.39-1.82,2.21-1.56c73.19,23.63,143.87,53.33,212.43,88.13a2.29,2.29,0,0,1,1,2.67A1.49,1.49,0,0,1,658.74,503.39Z"/><path class="cls-7" d="M231.62,247.89A1563.69,1563.69,0,0,0,1.49,227.57c-.89,0-1.55-1-1.49-2.32S.84,223,1.72,223a1560.44,1560.44,0,0,1,230.81,20.58c.91.16,1.43,1.24,1.18,2.44S232.52,248,231.62,247.89Z"/><path class="cls-5" d="M608.75,184.45c-37.72-17.31-76.09-32.87-115.07-47.11-99.17-35.46-201.2-62.28-305.23-78.92C148.77,52.39,109,47.9,68.93,45.57,55.48,45.14,43.84,58,41.88,70.67c-1.84,11.92,5,26.07,18.78,25.91C102,98.58,143,102.65,184,108.33a1653.81,1653.81,0,0,1,306.08,75.26c38.5,13.77,76.37,28.93,113.56,45.92,10,4.43,22.27-.48,23.13-12.43C627.63,204.88,620.61,189.68,608.75,184.45Z"/><path class="cls-2" d="M1258.39,547.21c-20.49-1.32-40.82-3.32-61.17-6.08a742.32,742.32,0,0,1-112-25.72c-8-2.94-18,.26-18.21,9.85s6.09,21.93,16.27,24.73a887.3,887.3,0,0,0,114,23.47c20.48,2.61,41,4.59,61.56,6,10.54.11,20.68-8.44,20.75-18.4C1279.66,551.43,1266.85,547.5,1258.39,547.21Z"/><path class="cls-8" d="M819.59,224.18a644.37,644.37,0,0,0-73.25-57.42C665,114.22,575.64,75.22,485,41.81Q423.38,19.52,360.5,1.19C348-3.12,334.4,4.77,331.9,17.37c-2.67,13.47,8.69,27.12,21.21,30.68q63.22,17.66,125.1,39.46c90.46,32.56,179.57,71.13,260.29,123.83,25.65,17.33,49.33,36.48,72.74,56.7,8.2,7.66,16-2.62,17.25-10.26C830.34,246.86,827.58,232.53,819.59,224.18Z"/><path class="cls-2" d="M579,265Q554,254,528.61,244.08a1534.9,1534.9,0,0,0-148.5-48.2q-28.69-7.57-57.58-14.24c-6.25-1.42-13.12,1.48-15.31,7s1.06,11.58,7.2,13q28.4,6.48,56.57,13.84a1537.51,1537.51,0,0,1,146.93,47.24q25.43,9.88,50.47,20.68c5.3,2.32,11.94-.25,14.85-5.34A8.93,8.93,0,0,0,579,265Z"/><path class="cls-5" d="M955.63,408.53c-10.91-7.91-21.65-16.08-32.28-24.37-28.55-22.47-56.33-45.84-84-69.38Q824.23,301.9,809.07,289c-3.26-2.76-6.76-.46-7.82,5.12s.72,12.26,4,14.93q15.1,12.42,30.25,24.8c27.74,22.56,55.75,44.73,84.61,65.84,10.76,7.79,21.63,15.44,32.68,22.82,3.58,2.39,7.13,1.2,7.9-2.58S959.16,411.1,955.63,408.53Z"/><path class="cls-2" d="M869,295.23c-1.54,8.11-7.63,10.94-12.61,6.18-6.05-5.79-8-15.76-6.43-23.94,1.6-8.41,7.63-11.34,12.58-6.3C868.36,277.13,870.53,287,869,295.23Z"/><path class="cls-9" d="M695.76,434.14c-10.08-5.87-11.79-20.44-8.88-30.48,2.56-8.82,12.58-17.16,21.18-11.21s11.22,19.86,8.7,29.79C714.47,431.31,705.38,439.82,695.76,434.14ZM707,395.89c-7.67-4.8-15.34,2.07-17.51,9.34-2.62,8.81-.61,20.13,7.33,25.18,7.54,4.8,15.56-2.17,17.39-9.81C716.28,412,714.53,401.44,707,395.89Z"/><path class="cls-3" d="M841.2,639.68c-.41,6.64-4.47,10.48-9.11,8.77s-8-8.43-7.53-15.19,4.64-10.87,9.19-9S841.62,633,841.2,639.68Z"/><path class="cls-3" d="M1084.88,600.59c.08,4.85-4,8-9,7a12.21,12.21,0,0,1-9.16-11.13c-.07-5,3.88-7.88,8.88-6.66S1084.8,595.74,1084.88,600.59Z"/><path class="cls-8" d="M984.52,530.41c.1,4.75-3.55,7.34-8.07,5.45s-8.2-7.67-8.28-12.54,3.44-6.89,8-4.88S984.42,525.65,984.52,530.41Z"/><path class="cls-5" d="M902.24,627.11c-4.67-1.55-8.24-8.45-8-15.41s4.23-11.22,8.83-9.5,8.18,8.64,8,15.43S906.9,628.67,902.24,627.11Zm.83-24.1c-4.3-1.6-8,2.39-8.25,8.89s3.08,13,7.44,14.42,8.07-2.51,8.27-8.87S907.38,604.61,903.07,603Z"/><path class="cls-5" d="M287.61,289.07c-8.36-1.83-10.26-11.87-8.68-19,1.68-7.6,8.34-15.93,16.46-14.65s10.35,11.48,8.55,18.62C302.09,281.42,296.17,289.71,287.61,289.07Zm7.52-32.59c-6.54-1.08-13.47,5-15.39,13.71s1.75,16.8,8.12,17.77,13.19-5.42,15.28-14.06S301.66,257.56,295.13,256.48Z"/><path class="cls-5" d="M607.55,152.22c-6.35-2.93-10.85-10.85-9.89-17.65s7.07-9.88,13.45-6.93,10.63,10.84,9.64,17.6S613.91,155.14,607.55,152.22ZM611,128.43c-6-2.76-11.67.13-12.57,6.48s3.3,13.77,9.24,16.5,11.43-.19,12.35-6.52S617,131.19,611,128.43Z"/><path class="cls-3" d="M575.44,221.39c-.58,6.26-6,9-12.23,6.42s-11-9.64-10.43-15.92,6.16-9.4,12.44-6.76S576,215.14,575.44,221.39Z"/><path class="cls-2" d="M721.73,615.53C652.41,579.82,581.5,547.32,508.43,520c-5.84-2.16-8.51-8.79-5.92-15.23s9.48-10.26,15.3-8.06a1783,1783,0,0,1,207.87,95.43C730.19,594.6,733,602,732,608.4S726.38,617.92,721.73,615.53ZM517.47,497.6c-5.41-2-11.8,1.47-14.21,7.46s.07,12.17,5.5,14.17c73,27.3,143.86,59.78,213.11,95.5,4.31,2.23,8.54-.66,9.49-6.63s-1.64-12.81-5.83-15.07A1788.89,1788.89,0,0,0,517.47,497.6Z"/><path class="cls-3" d="M1121.15,534.09c-5.32-1.31-9.43-6.08-9.2-9.9s4.65-5.2,9.92-3.76,9.45,5,9.28,8.73S1126.48,535.4,1121.15,534.09Zm.69-13.28c-4.92-1.35-9.07,0-9.28,3.55s3.64,8,8.62,9.22,9.19-1.13,9.35-4.58S1126.77,522.15,1121.84,520.81Z"/><path class="cls-4" d="M693.72,218.61a7.22,7.22,0,0,0-1.43-.23L686,221.9a9.75,9.75,0,0,0-.7,1.41Z"/><path class="cls-4" d="M697.75,220.51l-.89-.53c-5,2.77-7.46,4.16-12.48,6.94,0,.35-.06.71-.07,1.06C689.71,225,692.4,223.49,697.75,220.51Z"/><path class="cls-4" d="M701.34,222.63l-.88-.52c-6.35,3.55-9.55,5.34-16,8.9,0,.31.09.62.15.94C691.36,228.22,694.7,226.35,701.34,222.63Z"/><path class="cls-4" d="M704.91,224.76l-.88-.52c-7.41,4.16-11.16,6.26-18.68,10.42.1.29.19.57.3.85C693.41,231.22,697.27,229.06,704.91,224.76Z"/><path class="cls-4" d="M708.44,226.9l-.87-.53Q697.21,232.22,686.8,238l.45.76Q697.87,232.89,708.44,226.9Z"/><path class="cls-4" d="M711.93,229.05c-.34-.22-.51-.32-.86-.53Q700,234.81,688.83,241c.19.24.4.46.6.68Q700.73,235.42,711.93,229.05Z"/><path class="cls-4" d="M715.4,231.19l-.85-.53q-11.47,6.51-23,12.92c.27.2.55.38.83.55Q703.91,237.71,715.4,231.19Z"/><path class="cls-4" d="M718.83,233.35l-.85-.53q-11.4,6.52-22.9,12.92l.88.52C703.6,242,711.23,237.7,718.83,233.35Z"/><path class="cls-4" d="M722.22,235.51l-.83-.54c-7.56,4.35-15.15,8.62-22.75,12.89l.87.52C707.1,244.12,714.68,239.85,722.22,235.51Z"/><path class="cls-4" d="M725.58,237.67l-.82-.53q-11.25,6.5-22.6,12.84l.86.53Q714.36,244.18,725.58,237.67Z"/><path class="cls-4" d="M728.91,239.84l-.82-.54q-11.16,6.49-22.44,12.82l.86.52Q717.76,246.34,728.91,239.84Z"/><path class="cls-4" d="M732.2,242l-.81-.53q-11.08,6.48-22.28,12.78l.85.52Q721.14,248.5,732.2,242Z"/><path class="cls-4" d="M735.45,244.19l-.8-.54q-11,6.48-22.11,12.75l.84.53Q724.46,250.66,735.45,244.19Z"/><path class="cls-4" d="M738.67,246.37l-.79-.53q-10.92,6.45-22,12.71l.83.53Q727.77,252.84,738.67,246.37Z"/><path class="cls-4" d="M741.85,248.56l-.78-.54q-10.83,6.45-21.78,12.69l.82.53Q731,255,741.85,248.56Z"/><path class="cls-4" d="M745,250.75l-.77-.54q-10.72,6.45-21.61,12.66l.81.54Q734.28,257.2,745,250.75Z"/><path class="cls-4" d="M748.1,253c-.3-.22-.45-.33-.76-.54Q736.69,258.84,725.9,265l.81.54Q737.46,259.39,748.1,253Z"/><path class="cls-4" d="M751.17,255.15l-.75-.54q-10.56,6.42-21.27,12.61l.8.53Q740.63,261.58,751.17,255.15Z"/><path class="cls-4" d="M754.2,257.35l-.74-.54q-10.47,6.42-21.09,12.58l.79.54Q743.75,263.78,754.2,257.35Z"/><path class="cls-4" d="M757.19,259.56l-.73-.55q-10.37,6.42-20.9,12.57l.77.54Q746.85,266,757.19,259.56Z"/><path class="cls-4" d="M760.15,261.77l-.73-.55q-10.26,6.42-20.72,12.55l.77.54Q749.9,268.19,760.15,261.77Z"/><path class="cls-4" d="M763.06,264l-.71-.54q-10.17,6.4-20.54,12.52l.76.55Q752.91,270.39,763.06,264Z"/><path class="cls-4" d="M765.94,266.2l-.71-.54q-10.07,6.4-20.34,12.5l.75.55Q755.87,272.61,765.94,266.2Z"/><path class="cls-4" d="M768.77,268.42l-.69-.54q-10,6.39-20.16,12.49l.74.54Q758.82,274.84,768.77,268.42Z"/><path class="cls-4" d="M771.57,270.65l-.69-.55q-9.87,6.4-20,12.48l.73.54Q761.7,277.06,771.57,270.65Z"/><path class="cls-4" d="M774.32,272.88l-.68-.55q-9.76,6.39-19.76,12.46l.72.55Q764.56,279.28,774.32,272.88Z"/><path class="cls-4" d="M777,275.05l-.64-.52c-6.4,4.31-13,8.45-19.54,12.48l.72.55C764.08,283.54,770.63,279.42,777,275.05Z"/><path class="cls-4" d="M779.56,277.16l-.64-.52c-6.17,4.51-12.73,8.58-19.23,12.6l.7.54C766.87,285.78,773.44,281.72,779.56,277.16Z"/><path class="cls-4" d="M782.14,279.28l-.63-.52c-6,4.56-12.52,8.74-19,12.7l.7.55C769.69,288.08,776.07,283.8,782.14,279.28Z"/><path class="cls-4" d="M784.73,281.4l-.64-.52c-7.4,5.2-11,7.92-18.75,12.82l.68.55C773.77,289.35,777.32,286.6,784.73,281.4Z"/><path class="cls-4" d="M787.31,283.53l-.64-.53c-7.41,5.17-10.88,8-18.57,12.93l.68.55C776.45,291.59,779.89,288.69,787.31,283.53Z"/><path class="cls-4" d="M789.89,285.65l-.64-.52c-7.42,5.14-10.81,8.15-18.42,13l.66.55C779.08,293.83,782.46,290.78,789.89,285.65Z"/><path class="cls-4" d="M792.47,287.78l-.64-.52c-7.43,5.1-11.12,7.75-18.41,13l.62.51C781.34,295.53,785,292.88,792.47,287.78Z"/><path class="cls-4" d="M795.05,289.92l-.64-.53c-7.44,5.07-11.14,7.71-18.44,13l.63.51C783.91,297.61,787.61,295,795.05,289.92Z"/><path class="cls-4" d="M797.63,292.06l-.64-.53c-7.44,5-11.15,7.66-18.47,12.88l.63.51C786.47,299.7,790.18,297.08,797.63,292.06Z"/><path class="cls-4" d="M800.21,294.2l-.64-.53c-7.45,5-11.16,7.6-18.49,12.81l.63.51C789,301.79,792.75,299.19,800.21,294.2Z"/><path class="cls-4" d="M802.79,296.34l-.64-.53c-7.46,5-11.17,7.55-18.52,12.74l.63.51C791.61,303.88,795.33,301.29,802.79,296.34Z"/><path class="cls-4" d="M805.37,298.49l-.64-.53c-7.46,4.92-11.18,7.5-18.54,12.66l.63.52C794.18,306,797.9,303.4,805.37,298.49Z"/><path class="cls-4" d="M808,300.63l-.64-.53c-7.47,4.89-11.19,7.45-18.56,12.6l.63.51C796.75,308.07,800.48,305.51,808,300.63Z"/><path class="cls-4" d="M810.53,302.78l-.64-.53c-7.47,4.85-11.2,7.4-18.58,12.52l.63.51C799.32,310.16,803.05,307.62,810.53,302.78Z"/><path class="cls-4" d="M813,305a6.14,6.14,0,0,0-.53-.6c-7.46,4.8-11.18,7.31-18.55,12.4l.63.51C801.83,312.3,805.53,309.8,813,305Z"/><path class="cls-4" d="M814.66,307.75c-.12-.24-.23-.48-.36-.71-7.18,4.6-10.76,7-17.87,11.88l.64.51C804.06,314.63,807.59,312.27,814.66,307.75Z"/><path class="cls-4" d="M815.84,310.79c-.08-.26-.16-.52-.25-.78-6.66,4.26-10,6.48-16.59,11l.63.51C806.08,317.11,809.33,314.94,815.84,310.79Z"/><path class="cls-4" d="M816.57,314.11c0-.28-.09-.56-.14-.84-6,3.81-8.95,5.78-14.86,9.79l.63.51C807.92,319.7,810.8,317.79,816.57,314.11Z"/><path class="cls-4" d="M816.81,317.73c0-.31,0-.61,0-.92-5.09,3.25-7.62,4.93-12.67,8.32l.64.52C809.57,322.42,812,320.83,816.81,317.73Z"/><path class="cls-4" d="M816.44,321.42c0-.23.08-.45.11-.68-3.95,2.54-5.92,3.84-9.85,6.47l.42.33.23.17c3.59-2.4,5.39-3.59,9-5.91C816.38,321.67,816.42,321.55,816.44,321.42Z"/><path class="cls-4" d="M813.66,327.32a8.13,8.13,0,0,0,1.35-1.81l-5,3.29a4,4,0,0,0,1.78-.24Z"/><path class="cls-10" d="M1173.06,573.58c-6.77-5.81-10.11-8.55-16.7-13.79-1.43-1.14-3.23-.4-3.25,1.39-.07,8.3,0,12.07.14,17.32,0,1.14,1.84,2.19,3.27,1.87,6.57-1.47,9.89-2.17,16.58-3.53C1174.55,576.54,1174.52,574.83,1173.06,573.58Z"/><path class="cls-10" d="M1007,569.94a4,4,0,0,1-1.5-1,5.07,5.07,0,0,1-1.52-3.45c-.07-7.46-.12-11.09-.24-18a1.92,1.92,0,0,1,1.43-2.13,3.5,3.5,0,0,1,3,1.12c5.79,5.5,8.71,8.24,14.58,13.64a4.68,4.68,0,0,1,1.57,3.23,2.13,2.13,0,0,1-1.48,2.26c-5.76,1.63-8.62,2.5-14.33,4.32A2.41,2.41,0,0,1,1007,569.94Zm-.29-22.05a.63.63,0,0,0-.37,0,.45.45,0,0,0-.35.52c.13,6.88.18,10.49.25,17.93a1.21,1.21,0,0,0,.37.83.77.77,0,0,0,.73.25c5.7-1.78,8.56-2.62,14.31-4.2a.53.53,0,0,0,.36-.55,1.09,1.09,0,0,0-.38-.79c-5.87-5.44-8.78-8.18-14.56-13.72A1.06,1.06,0,0,0,1006.75,547.89Z"/><path class="cls-10" d="M735.45,498.11q-7.59-12.39-14.92-24.95c-1.24-2.14-3.48-1.78-4,.64q-3.19,14-6.36,28c-.55,2.43,1.15,5.11,3,4.83,8.75-1.27,13-1.88,21.3-3.06C736.27,503.35,736.79,500.3,735.45,498.11Z"/><path class="cls-5" d="M656.65,208.19q-7.87-10.37-15.95-20.56c-1.4-1.78-3.52-1.48-3.79.53q-1.57,11.57-3,23.14c-.25,2,1.51,4.18,3.17,4,7.66-1,11.45-1.57,19-2.57C657.65,212.47,658,210,656.65,208.19Z"/><path class="cls-2" d="M1252.89,611.6a3.23,3.23,0,0,1-1.07-.26,1.57,1.57,0,0,1-1.09-1.29c-.08-3.68-.11-5.49-.18-9,0-.49.38-.89,1-1.08a3.27,3.27,0,0,1,2.13.15c4.9,2.08,7.36,3.12,12.32,5.18a1.53,1.53,0,0,1,1.1,1.24c0,.49-.38.91-1.06,1.12-4.88,1.53-7.31,2.29-12.14,3.83A3.12,3.12,0,0,1,1252.89,611.6Zm-.22-11.3a2.35,2.35,0,0,0-.71.07c-.44.13-.7.4-.69.72.07,3.52.1,5.33.17,9a1.06,1.06,0,0,0,.73.85,2,2,0,0,0,1.41.09c4.83-1.53,7.26-2.29,12.14-3.81.45-.14.71-.42.7-.74s-.28-.64-.73-.82c-5-2.07-7.41-3.11-12.31-5.2A2.46,2.46,0,0,0,1252.67,600.3Z"/><path class="cls-2" d="M872.45,601.54c-3.46-4.74-5.19-7.15-8.6-12-.83-1.19-2-.64-2.09,1-.39,6.68-.58,10-1,16.62-.09,1.6,1,3,1.9,2.6,3.85-1.83,5.76-2.75,9.57-4.58C873.2,604.68,873.3,602.69,872.45,601.54Z"/><path class="cls-9" d="M984,443.68a4.05,4.05,0,0,1-1.09-1,3.43,3.43,0,0,1-.78-2.6c.73-3.82,1.1-5.68,1.84-9.4a1.27,1.27,0,0,1,1.5-1.09,3.54,3.54,0,0,1,2.25,1.51c3.06,4.09,4.61,6.1,7.74,10.05a3.28,3.28,0,0,1,.81,2.48,1.29,1.29,0,0,1-1.5,1.08c-3.83-.32-5.74-.45-9.57-.65A2.65,2.65,0,0,1,984,443.68ZM986.23,432a.24.24,0,0,0-.13,0,.14.14,0,0,0-.16.11c-.73,3.69-1.09,5.54-1.82,9.33a.34.34,0,0,0,.08.27.37.37,0,0,0,.24.15c3.83.23,5.74.37,9.56.72a.14.14,0,0,0,.16-.12.34.34,0,0,0-.09-.26c-3.13-3.95-4.67-5.95-7.73-10.05Z"/><path class="cls-5" d="M828.59,372.87c-2.51-5.22-3.76-7.84-6.25-13.11-.61-1.28-1.71-1.12-2,.29-1.12,5.82-1.68,8.73-2.79,14.56-.27,1.42.49,3,1.37,2.87,3.61-.59,5.42-.88,9.05-1.45C828.86,375.89,829.2,374.14,828.59,372.87Z"/><path class="cls-10" d="M1161.22,633.32c-5.17-.6-7.73-.92-12.84-1.57-30.18-4-60.1-9-89.88-15.31-8.48-1.85-12.67-2.81-21-4.82-2.24-.54-4,1.06-4,3.59a5.83,5.83,0,0,0,4.09,5.54c8.32,1.89,12.52,2.8,21,4.53,29.82,5.92,59.76,10.59,89.93,14.29,5.11.6,7.67.89,12.84,1.44,2.51.27,4.54-1.24,4.5-3.35S1163.74,633.61,1161.22,633.32Z"/><path class="cls-10" d="M507.29,536c-6-2.21-8.93-3.28-14.81-5.39-34-12-68.37-22.86-103.23-32.22q-12-3.2-24.13-6.09c-2.57-.62-5.4,1.24-6.27,4a4.46,4.46,0,0,0,3,6q11.94,2.84,23.82,6c34.65,9.26,68.78,20,102.6,31.9,5.88,2.1,8.84,3.17,14.81,5.37,2.9,1.07,6.18-.07,7.33-2.69A5.15,5.15,0,0,0,507.29,536Z"/><path class="cls-10" d="M819.94,160.87c-1.5-1.29-2.26-1.93-3.77-3.21-32.69-27.12-67.83-49.8-104.79-70.64-3.77-2.09-5.68-3.14-9.54-5.23a1.47,1.47,0,0,0-2.31.83A2.85,2.85,0,0,0,701,85.5c3.86,2.1,5.77,3.15,9.55,5.25,37,20.92,72.25,43.66,104.9,71l3.77,3.23c.74.64,1.49.23,1.7-.9A3.73,3.73,0,0,0,819.94,160.87Z"/><path class="cls-11" d="M365.16,352.16c-12.77-3.24-25.6-6.25-38.46-9.12a1540.42,1540.42,0,0,0-184.14-28.38c-9.62.07-13.75,11.45-14.21,19.34s2.1,19.49,11.36,21.18a1501.57,1501.57,0,0,1,177.64,24.88q18.7,3.88,37.3,8.31c8.91,1.36,15.34-7.46,17.61-14.91S373.85,355.05,365.16,352.16Z"/><path class="cls-12" d="M239.33,161.91c-7.51-4.84-11.26-7.27-18.71-12.19-1.88-1.24-4.31-.45-4.37,1.4a57.18,57.18,0,0,1-3,18.17c-.59,2,1.41,3.6,3.6,2.9,7.23-2.32,14.58-4.43,21.94-6.3C241,165.32,241.22,163.13,239.33,161.91Z"/></svg>