<?xml version="1.0" encoding="iso-8859-1"?>
<!-- Generator: Adobe Illustrator 19.0.0, SVG Export Plug-In . SVG Version: 6.00 Build 0)  -->
<svg version="1.1" id="Capa_1" xmlns="http://www.w3.org/2000/svg" xmlns:xlink="http://www.w3.org/1999/xlink" x="0px" y="0px"
	 viewBox="0 0 512.002 512.002" style="enable-background:new 0 0 512.002 512.002;" xml:space="preserve">
<rect x="277.665" y="251.022" transform="matrix(-0.7071 0.7071 -0.7071 -0.7071 704.7684 291.9412)" style="fill:#3C6EAA;" width="28.512" height="81.822"/>
<circle style="fill:#365889;" cx="167.696" cy="167.706" r="160.274"/>
<circle style="fill:#EFEADD;" cx="167.696" cy="167.706" r="123.369"/>
<path style="fill:#4E8AD1;" d="M498.756,476.745l-22.017,22.017c-7.657,7.657-20.073,7.657-27.731,0L296.134,345.889
	c-7.657-7.657-7.657-20.073,0-27.731l22.017-22.017c7.657-7.657,20.073-7.657,27.731,0l152.873,152.873
	C506.414,456.671,506.414,469.087,498.756,476.745z"/>
<path style="fill:#3C6EAA;" d="M345.878,296.142l152.872,152.872c7.662,7.662,7.661,20.075,0.006,27.73l-14.791,14.791
	c7.656-7.656,7.656-20.069-0.006-27.73L331.087,310.934c-7.656-7.656-20.069-7.656-27.725,0l14.791-14.791
	C325.809,288.487,338.222,288.486,345.878,296.142z"/>
<g>
	
		<rect x="395.781" y="416.602" transform="matrix(-0.7071 0.7071 -0.7071 -0.7071 1040.4244 430.9654)" style="fill:#FFCB39;" width="70.35" height="28.719"/>
	<circle style="fill:#FFCB39;" cx="167.696" cy="167.706" r="95.955"/>
</g>
<circle style="fill:#FFDF78;" cx="167.696" cy="167.706" r="65.37"/>
<path d="M140.027,39.773c-24.582,5.294-47.013,17.531-64.871,35.388c-51.027,51.029-51.027,134.055,0,185.083
	c24.719,24.719,57.584,38.332,92.541,38.332c34.958,0,67.823-13.613,92.541-38.332c24.718-24.719,38.332-57.584,38.332-92.541
	s-13.613-67.822-38.332-92.541c-22.744-22.743-52.938-36.28-85.018-38.115c-4.141-0.24-7.681,2.923-7.918,7.06
	c-0.237,4.137,2.924,7.681,7.06,7.917c28.4,1.625,55.131,13.61,75.267,33.747c21.885,21.885,33.938,50.983,33.938,81.932
	s-12.053,60.048-33.938,81.932c-21.885,21.886-50.983,33.939-81.933,33.939c-30.95,0-60.048-12.053-81.932-33.939
	c-45.177-45.177-45.177-118.687,0-163.865c15.812-15.812,35.668-26.647,57.422-31.331c4.05-0.872,6.626-4.862,5.754-8.912
	C148.067,41.478,144.08,38.906,140.027,39.773z"/>
<path d="M504.06,443.709L351.186,290.837c-5.121-5.121-11.928-7.941-19.17-7.941c-5.132,0-10.042,1.423-14.291,4.071l-17.008-17.008
	c50.609-65.74,45.816-160.687-14.387-220.89c-65.415-65.414-171.854-65.413-237.269,0c-65.415,65.415-65.415,171.854,0,237.269
	c21.964,21.964,49.466,37.366,79.531,44.542c4.03,0.963,8.076-1.524,9.037-5.555c0.962-4.03-1.525-8.075-5.555-9.037
	c-27.365-6.531-52.403-20.557-72.406-40.559c-59.566-59.566-59.566-156.486,0-216.052c59.567-59.568,156.488-59.567,216.053,0
	c59.566,59.566,59.566,156.486,0,216.052c-30.193,30.193-70.33,46.078-113.029,44.665c-4.156-0.12-7.606,3.111-7.741,7.253
	c-0.135,4.141,3.112,7.606,7.253,7.741c1.802,0.059,3.602,0.088,5.4,0.088c37.022-0.001,73.126-12.387,102.32-34.771l17.041,17.035
	c-6.482,10.453-5.198,24.389,3.866,33.454l26.063,26.063c2.929,2.928,7.679,2.928,10.608,0c2.929-2.93,2.929-7.679,0-10.609
	l-26.063-26.062c-4.721-4.722-4.721-12.402,0-17.123l22.017-22.018c2.287-2.286,5.328-3.547,8.561-3.547
	c3.234,0,6.274,1.26,8.561,3.548l76.543,76.542l-39.139,39.14l-31.461-31.461c-2.929-2.928-7.679-2.928-10.608,0
	c-2.929,2.93-2.929,7.679,0,10.609l107.791,107.79c5.286,5.285,12.228,7.927,19.17,7.927s13.884-2.643,19.17-7.927l22.017-22.017
	c5.121-5.121,7.94-11.929,7.94-19.17C512.002,455.637,509.18,448.83,504.06,443.709z M297.063,306.62l-15.616-15.611
	c1.654-1.524,3.288-3.076,4.885-4.672c1.6-1.6,3.149-3.231,4.672-4.88l15.611,15.612L297.063,306.62z M406.534,445.68l39.14-39.139
	l9.699,9.699l-39.139,39.14L406.534,445.68z M427.729,388.596l7.336,7.336l-39.14,39.139l-7.336-7.335L427.729,388.596z
	 M493.452,471.44l-22.017,22.017c-4.721,4.722-12.402,4.722-17.123,0l-27.469-27.469l39.139-39.14l27.47,27.47
	c2.287,2.286,3.547,5.327,3.547,8.561C496.998,466.115,495.738,469.153,493.452,471.44z"/>
<path d="M64.247,167.702c0,57.043,46.408,103.452,103.451,103.452s103.451-46.408,103.451-103.452S224.74,64.252,167.697,64.252
	S64.247,110.66,64.247,167.702z M167.697,79.255c48.77,0,88.448,39.678,88.448,88.448c0,48.771-39.678,88.449-88.448,88.449
	s-88.448-39.678-88.448-88.449C79.249,118.933,118.926,79.255,167.697,79.255z"/>
<path d="M110.338,135.435c1.33,0.965,2.871,1.43,4.398,1.43c2.321,0,4.611-1.075,6.079-3.098c2.028-2.796,4.323-5.43,6.82-7.826
	c2.988-2.868,3.086-7.617,0.218-10.606c-2.869-2.987-7.618-3.086-10.606-0.218c-3.139,3.013-6.025,6.325-8.576,9.842
	C106.237,128.312,106.984,133.004,110.338,135.435z"/>
<path d="M115.57,192.872c-1.804-3.729-6.289-5.291-10.02-3.485c-3.73,1.804-5.29,6.29-3.486,10.02
	c1.892,3.911,4.154,7.678,6.72,11.198c1.468,2.013,3.752,3.081,6.067,3.081c1.533,0,3.08-0.469,4.414-1.441
	c3.348-2.441,4.082-7.134,1.64-10.481C118.867,198.968,117.072,195.977,115.57,192.872z"/>
<path d="M102.324,175.248c4.143,0,7.501-3.403,7.501-7.546c0-3.448,0.305-6.898,0.905-10.259c0.729-4.078-1.985-7.975-6.064-8.704
	c-4.079-0.732-7.975,1.985-8.704,6.064c-0.756,4.23-1.14,8.568-1.14,12.899v0.091C94.823,171.937,98.182,175.248,102.324,175.248z"
	/>
<path d="M185.615,222.749c-3.279,1.066-6.678,1.841-10.103,2.303c-4.106,0.553-6.985,4.33-6.432,8.436
	c0.507,3.766,3.727,6.5,7.424,6.5c0.333,0,0.671-0.022,1.011-0.068c4.318-0.581,8.604-1.559,12.741-2.904
	c3.94-1.281,6.094-5.514,4.813-9.453C193.787,223.622,189.555,221.466,185.615,222.749z"/>
<path d="M147.371,113.056c0.772,0,1.558-0.12,2.331-0.373c3.277-1.07,6.675-1.85,10.102-2.316c4.105-0.56,6.979-4.341,6.419-8.445
	c-0.559-4.105-4.337-6.983-8.445-6.42c-4.318,0.589-8.603,1.571-12.735,2.922c-3.938,1.286-6.087,5.522-4.8,9.459
	C141.276,111.047,144.214,113.056,147.371,113.056z"/>
<path d="M133.209,231.912c3.837,2.064,7.882,3.792,12.022,5.133c0.768,0.248,1.546,0.366,2.312,0.366
	c3.165,0,6.107-2.019,7.135-5.192c1.276-3.942-0.884-8.171-4.826-9.447c-3.282-1.063-6.49-2.432-9.533-4.07
	c-3.647-1.962-8.197-0.598-10.161,3.05C128.195,225.401,129.562,229.95,133.209,231.912z"/>
<path d="M185.465,112.609c3.284,1.058,6.493,2.423,9.54,4.058c1.128,0.605,2.341,0.892,3.539,0.892c2.674,0,5.264-1.435,6.617-3.957
	c1.958-3.651,0.585-8.197-3.065-10.156c-3.841-2.06-7.887-3.781-12.028-5.116c-3.944-1.271-8.169,0.896-9.44,4.839
	C179.356,107.111,181.522,111.338,185.465,112.609z"/>
<path d="M207.469,220.123c1.473,1.54,3.446,2.315,5.421,2.315c1.864,0,3.731-0.69,5.185-2.08c3.142-3.006,6.033-6.314,8.591-9.832
	c2.436-3.352,1.695-8.042-1.655-10.479c-3.352-2.437-8.042-1.695-10.479,1.654c-2.033,2.796-4.331,5.426-6.829,7.814
	C204.71,212.381,204.605,217.13,207.469,220.123z"/>
<path d="M219.79,142.461c1.297,2.671,3.971,4.227,6.753,4.227c1.099,0,2.216-0.243,3.271-0.756
	c3.727-1.809,5.281-6.298,3.471-10.024c-1.898-3.909-4.165-7.673-6.735-11.189c-2.446-3.346-7.14-4.072-10.483-1.626
	c-3.344,2.445-4.072,7.14-1.626,10.483C216.483,136.368,218.283,139.358,219.79,142.461z"/>
<path d="M225.567,167.522v0.181c0,3.475-0.309,6.952-0.919,10.339c-0.734,4.078,1.975,7.978,6.052,8.712
	c0.45,0.081,0.897,0.12,1.339,0.12c3.561,0,6.72-2.545,7.374-6.172c0.768-4.262,1.157-8.635,1.156-13.061v-0.119
	c0-4.144-3.359-7.501-7.501-7.501C228.926,160.021,225.567,163.379,225.567,167.522z"/>
<path d="M160.582,133.425v6.007c-8.677,1.555-15.289,9.142-15.289,18.26c0,10.238,8.329,18.567,18.567,18.567h8.445
	c1.965,0,3.565,1.599,3.565,3.565c0,1.965-1.599,3.565-3.565,3.565h-12.199c-0.762-3.336-3.747-5.824-7.313-5.824
	c-4.143,0-7.501,3.357-7.501,7.501c0,7.348,5.978,13.325,13.326,13.325h1.963v5.699c0,4.144,3.359,7.501,7.501,7.501
	c4.143,0,7.501-3.357,7.501-7.501v-6.007c8.677-1.555,15.288-9.142,15.288-18.26c0-10.238-8.329-18.567-18.567-18.567h-8.445
	c-1.965,0-3.565-1.599-3.565-3.565c0-1.965,1.599-3.565,3.565-3.565h12.198c0.762,3.336,3.747,5.824,7.313,5.824
	c4.143,0,7.501-3.358,7.501-7.501c0-7.348-5.978-13.325-13.325-13.325h-1.963v-5.699c0-4.144-3.359-7.501-7.501-7.501
	C163.94,125.924,160.582,129.281,160.582,133.425z"/>
<g>
</g>
<g>
</g>
<g>
</g>
<g>
</g>
<g>
</g>
<g>
</g>
<g>
</g>
<g>
</g>
<g>
</g>
<g>
</g>
<g>
</g>
<g>
</g>
<g>
</g>
<g>
</g>
<g>
</g>
</svg>
